<svg width="4000" height="602" viewBox="0 0 4000 602" fill="none" xmlns="http://www.w3.org/2000/svg">
<g id="Gunung">
<path id="Vector 2" d="M1584.47 261.682L1354.42 330.697L1124.37 376.707H1348.67C1482.86 378.624 1752.98 381.308 1759.88 376.707C1766.78 372.106 2109.75 252.096 2280.37 192.667L2240.11 112.149L2196.98 83.3929L2133.71 48.8854L2024.44 63.2635L1923.79 94.8954L1903.66 120.776L1742.63 198.418L1584.47 261.682Z" fill="#F3D993" fill-opacity="0.7"/>
<path id="Vector 1" d="M1699.5 356.578L1604.6 385.334V601.006H2668.58H4000L3933.86 572.25L3861.97 531.991L3792.95 514.737H3712.44L3660.68 488.857L3606.04 465.852L3560.03 445.722L3514.02 416.966L3439.25 362.329H3410.5L3309.85 281.812H3266.71L3252.34 290.438H3197.7L3154.57 324.946H3137.31L3111.43 313.443L3051.04 290.438L2967.65 253.055L2884.26 212.796L2855.5 184.04L2823.87 175.413L2797.99 149.533L2668.58 57.5126L2582.32 2.87563L2470.17 0L2447.16 2.87563L2294.75 89.1445L2150.97 163.911L2004.31 215.672L1857.66 287.563L1699.5 356.578Z" fill="#F3D993"/>
<path id="Vector 3" d="M598.131 356.578L503.235 385.334L402.588 431.344L304.817 451.474L244.428 491.732L172.538 537.742L77.642 578.001L0 598.131H572.25L1452.19 601.006H2904.38L2832.49 572.25L2760.6 531.991L2691.59 514.737H2611.07L2559.31 488.857L2504.67 465.852L2458.66 445.722L2429.91 431.344L2398.27 416.966L2360.89 402.588L2309.13 385.334L2266 393.961L2208.48 362.329L2127.96 342.2L2053.2 324.946H2035.94L2010.06 313.443L1949.68 290.438L1866.28 253.055L1782.89 212.796L1754.13 184.04L1722.5 175.413L1696.62 149.533L1567.22 57.5126L1480.95 2.87563L1368.8 0L1345.79 2.87563L1193.39 89.1445L1049.6 163.911L902.947 215.672L756.29 287.563L598.131 356.578Z" fill="#FFE39A"/>
</g>
</svg>
