<svg width="651" height="700" viewBox="0 0 651 700" fill="none" xmlns="http://www.w3.org/2000/svg">
<rect x="186" y="174" width="377" height="401" rx="10" fill="#FAF5E4"/>
<rect width="651" height="698" fill="white"/>
<rect x="705.796" y="-47.0598" width="59.8494" height="260.561" rx="29.9247" transform="rotate(64.1241 705.796 -47.0598)" fill="#004445"/>
<rect x="645.527" y="-112.565" width="59.8494" height="260.561" rx="29.9247" transform="rotate(64.1241 645.527 -112.565)" fill="#F8B400"/>
<g filter="url(#filter0_d)">
<rect x="727.385" y="-101.069" width="59.8494" height="364.232" rx="29.9247" transform="rotate(64.1241 727.385 -101.069)" fill="#2C786C"/>
</g>
<path d="M525.839 581.316L398.535 634.586C395.473 635.867 394.035 639.375 395.316 642.437L448.586 769.741C449.867 772.803 453.375 774.241 456.437 772.96L583.741 719.69C586.803 718.409 588.241 714.901 586.96 711.839L533.69 584.535C532.409 581.473 528.901 580.035 525.839 581.316ZM526.757 628.392L515.704 633.017C507.039 636.643 507.083 641.461 509.617 647.515L515.197 660.851L535.884 652.195L541.922 674.201L523.933 681.728L546.363 735.331L524.794 744.356L502.371 690.771L484.331 698.32L475.587 677.426L493.628 669.877L487.186 654.482C479.71 636.615 486.549 622.31 502.497 615.637C510.142 612.438 516.936 610.265 518.965 609.721L526.774 628.384L526.757 628.392Z" fill="#ECEBEB"/>
<path d="M629.749 549.745C617.65 556.322 613.142 571.563 619.718 583.663C626.295 595.763 641.536 600.27 653.636 593.694C665.736 587.117 670.243 571.876 663.667 559.776C657.091 547.676 641.849 543.169 629.749 549.745ZM707.599 535.899C702.653 526.799 697.835 517.737 692.387 508.932C686.142 498.659 678.646 490.604 666.738 487.082C654.804 483.553 644.158 486.243 633.33 491.466C623.953 495.901 614.98 500.884 605.897 505.821C596.798 510.767 587.736 515.585 578.93 521.033C568.658 527.278 560.603 534.774 557.081 546.682C553.552 558.615 556.241 569.261 561.465 580.09C565.899 589.467 570.883 598.439 575.819 607.522C580.756 616.606 585.584 625.684 591.031 634.489C597.277 644.762 604.773 652.817 616.681 656.339C628.614 659.868 639.26 657.178 650.088 651.955C659.466 647.52 668.438 642.537 677.521 637.6C686.621 632.655 695.683 627.836 704.488 622.388C714.761 616.143 722.816 608.647 726.338 596.739C729.867 584.806 727.177 574.16 721.954 563.332C717.545 553.962 712.545 544.998 707.599 535.899ZM660.069 605.53C641.359 615.699 618.052 608.806 607.882 590.096C597.713 571.386 604.606 548.078 623.316 537.909C642.027 527.74 665.334 534.633 675.503 553.343C685.672 572.053 678.779 595.361 660.069 605.53ZM662.051 525.292C657.682 527.666 652.237 526.056 649.863 521.687C647.488 517.319 649.099 511.874 653.467 509.499C657.836 507.125 663.281 508.735 665.655 513.104C666.22 514.14 666.575 515.278 666.7 516.452C666.825 517.626 666.716 518.813 666.382 519.946C666.047 521.078 665.492 522.133 664.749 523.05C664.005 523.968 663.089 524.729 662.051 525.292Z" fill="#ECEBEB"/>
<path d="M626.089 603.951C623.285 602.522 620.147 601.879 617.008 602.09C613.776 602.304 610.652 603.338 607.931 605.094C597.701 611.625 565.831 646.194 565.831 646.194C552.38 660.455 539.818 675.527 528.215 691.328C526.729 694.223 525.982 697.441 526.04 700.695C526.109 703.903 526.991 706.994 528.608 709.675C535.508 718.896 543.269 727.44 551.786 735.192C560.195 743.047 569.336 750.089 579.099 756.225C581.88 757.625 585.019 758.25 588.213 758.041C591.406 757.831 594.535 756.789 597.307 755.027C607.638 748.377 639.352 713.978 639.352 713.978C652.82 699.699 665.399 684.608 677.018 668.789C678.548 665.935 679.325 662.737 679.276 659.498C679.222 656.303 678.318 653.235 676.681 650.603C669.821 641.345 662.075 632.778 653.553 625.022C645.156 617.06 635.949 609.996 626.084 603.947L626.089 603.951ZM608.193 705.582L576.73 676.575L618.98 662.319L608.193 705.582Z" fill="#DCDCDC"/>
<defs>
<filter id="filter0_d" x="395.67" y="-101.069" width="361.834" height="220.808" filterUnits="userSpaceOnUse" color-interpolation-filters="sRGB">
<feFlood flood-opacity="0" result="BackgroundImageFix"/>
<feColorMatrix in="SourceAlpha" type="matrix" values="0 0 0 0 0 0 0 0 0 0 0 0 0 0 0 0 0 0 127 0"/>
<feOffset dy="4"/>
<feGaussianBlur stdDeviation="2"/>
<feColorMatrix type="matrix" values="0 0 0 0 0 0 0 0 0 0 0 0 0 0 0 0 0 0 0.25 0"/>
<feBlend mode="normal" in2="BackgroundImageFix" result="effect1_dropShadow"/>
<feBlend mode="normal" in="SourceGraphic" in2="effect1_dropShadow" result="shape"/>
</filter>
</defs>
</svg>
