<svg width="131" height="200" viewBox="0 0 131 200" fill="none" xmlns="http://www.w3.org/2000/svg">
<rect y="161.905" width="161.905" height="6.34921" rx="3.1746" transform="rotate(-90 0 161.905)" fill="#FBF0CC"/>
<rect x="9.5238" y="168.254" width="161.905" height="6.34921" rx="3.1746" transform="rotate(-90 9.5238 168.254)" fill="#FBF0CC"/>
<rect x="19.0476" y="174.603" width="161.905" height="6.34921" rx="3.1746" transform="rotate(-90 19.0476 174.603)" fill="#FBF0CC"/>
<rect x="28.5714" y="180.952" width="161.905" height="6.34921" rx="3.1746" transform="rotate(-90 28.5714 180.952)" fill="#FBF0CC"/>
<rect x="38.0952" y="187.302" width="161.905" height="6.34921" rx="3.1746" transform="rotate(-90 38.0952 187.302)" fill="#FBF0CC"/>
<rect x="47.619" y="194.286" width="161.905" height="6.34921" rx="3.1746" transform="rotate(-90 47.619 194.286)" fill="#FBF0CC"/>
<rect x="57.1428" y="200" width="161.905" height="6.34921" rx="3.1746" transform="rotate(-90 57.1428 200)" fill="#FBF0CC"/>
<rect x="66.6666" y="200" width="161.905" height="6.34921" rx="3.1746" transform="rotate(-90 66.6666 200)" fill="#FBF0CC"/>
<rect x="76.1906" y="193.651" width="161.905" height="6.34921" rx="3.1746" transform="rotate(-90 76.1906 193.651)" fill="#FBF0CC"/>
<rect x="85.7142" y="187.302" width="161.905" height="6.34921" rx="3.1746" transform="rotate(-90 85.7142 187.302)" fill="#FBF0CC"/>
<rect x="95.238" y="180.952" width="161.905" height="6.34921" rx="3.1746" transform="rotate(-90 95.238 180.952)" fill="#FBF0CC"/>
<rect x="104.762" y="174.603" width="161.905" height="6.34921" rx="3.1746" transform="rotate(-90 104.762 174.603)" fill="#FBF0CC"/>
<rect x="114.286" y="168.254" width="161.905" height="6.34921" rx="3.1746" transform="rotate(-90 114.286 168.254)" fill="#FBF0CC"/>
<rect x="123.809" y="161.905" width="161.905" height="6.34921" rx="3.1746" transform="rotate(-90 123.809 161.905)" fill="#FBF0CC"/>
</svg>
