<svg width="351" height="306" viewBox="0 0 351 306" fill="none" xmlns="http://www.w3.org/2000/svg">
<g id="Sosmed">
<path id="Facebook" d="M132.839 111.316L5.53496 164.586C2.47343 165.867 1.035 169.375 2.31608 172.437L55.5859 299.741C56.867 302.803 60.3755 304.241 63.437 302.96L190.741 249.69C193.803 248.409 195.241 244.901 193.96 241.839L140.69 114.535C139.409 111.473 135.901 110.035 132.839 111.316ZM133.757 158.392L122.704 163.017C114.039 166.643 114.083 171.461 116.617 177.515L122.197 190.851L142.884 182.195L148.922 204.201L130.933 211.728L153.363 265.331L131.794 274.356L109.371 220.771L91.3307 228.32L82.5875 207.426L100.628 199.877L94.1864 184.482C86.7098 166.615 93.5492 152.31 109.497 145.637C117.142 142.438 123.936 140.265 125.965 139.721L133.774 158.384L133.757 158.392Z" fill="#F3D993"/>
<path id="Vector" d="M236.749 79.7453C224.65 86.3217 220.142 101.563 226.718 113.663C233.295 125.763 248.536 130.27 260.636 123.694C272.736 117.117 277.243 101.876 270.667 89.7763C264.091 77.6764 248.849 73.1689 236.749 79.7453ZM314.599 65.8987C309.653 56.7991 304.835 47.7371 299.387 38.9317C293.142 28.6592 285.646 20.6039 273.738 17.0822C261.804 13.5529 251.158 16.2427 240.33 21.4659C230.953 25.9006 221.98 30.884 212.897 35.8208C203.798 40.7665 194.736 45.585 185.93 51.0328C175.658 57.2781 167.603 64.7739 164.081 76.682C160.552 88.6154 163.241 99.2615 168.465 110.09C172.899 119.467 177.883 128.439 182.819 137.522C187.756 146.606 192.584 155.684 198.031 164.489C204.277 174.762 211.773 182.817 223.681 186.339C235.614 189.868 246.26 187.178 257.088 181.955C266.466 177.521 275.438 172.537 284.521 167.6C293.621 162.655 302.683 157.836 311.488 152.388C321.761 146.143 329.816 138.647 333.338 126.739C336.867 114.806 334.177 104.16 328.954 93.3316C324.545 83.9618 319.545 74.9983 314.599 65.8987V65.8987ZM267.069 135.53C248.359 145.699 225.052 138.806 214.882 120.096C204.713 101.386 211.606 78.0784 230.316 67.9092C249.027 57.7399 272.334 64.6329 282.503 83.3432C292.672 102.053 285.779 125.361 267.069 135.53ZM269.051 55.2917C264.682 57.6661 259.237 56.0557 256.863 51.6872C254.488 47.3187 256.099 41.8736 260.467 39.4993C264.836 37.125 270.281 38.7354 272.655 43.1038C273.22 44.1404 273.575 45.2783 273.7 46.4524C273.825 47.6264 273.716 48.8135 273.382 49.9456C273.047 51.0778 272.492 52.1328 271.749 53.0501C271.005 53.9675 270.089 54.7293 269.051 55.2917V55.2917Z" fill="#F3D993"/>
<g id="Youtube">
<path id="Vector_2" d="M233.089 133.951C230.285 132.522 227.147 131.879 224.008 132.09C220.776 132.304 217.652 133.338 214.931 135.094C204.701 141.625 172.831 176.194 172.831 176.194C159.38 190.455 146.818 205.527 135.215 221.328C133.729 224.223 132.982 227.441 133.04 230.695C133.109 233.903 133.991 236.994 135.608 239.675C142.508 248.896 150.269 257.44 158.786 265.192C167.195 273.047 176.336 280.089 186.099 286.225C188.88 287.625 192.019 288.25 195.213 288.041C198.406 287.831 201.535 286.789 204.307 285.027C214.638 278.377 246.352 243.978 246.352 243.978C259.82 229.699 272.399 214.608 284.018 198.789C285.548 195.935 286.325 192.737 286.276 189.498C286.222 186.303 285.318 183.235 283.681 180.603C276.821 171.345 269.075 162.778 260.553 155.022C252.156 147.06 242.949 139.996 233.084 133.947L233.089 133.951ZM215.193 235.582L183.73 206.575L225.98 192.319L215.193 235.582Z" fill="#FFE39A"/>
</g>
</g>
</svg>
